<svg width="187" height="174" viewBox="0 0 187 174" fill="none" xmlns="http://www.w3.org/2000/svg">
<path d="M84.4646 72.9688L74.021 63.4374L68.7975 69.1711L79.2412 78.7025L84.4646 72.9688Z" fill="#022B54"/>
<path d="M85.2646 72.9318L73.984 62.6367L67.998 69.208L79.2786 79.5032L85.2646 72.9318ZM74.0587 64.2382L83.6647 73.0055L79.2038 77.9017L69.5979 69.1344L74.0587 64.2382Z" fill="#FFFEEF"/>
<path d="M0.370628 22.504L60.384 77.2752L61.4598 77.2256L80.283 55.4328L21.3454 0.612L20.2696 0.6616L0.370628 22.504Z" fill="#022B54"/>
<path d="M81.3589 55.383L21.3454 0.611816L1.44647 22.4545L61.4599 77.2257L81.3589 55.383Z" fill="white"/>
<path d="M76.7655 60.4253L16.7526 5.6542L15.99 6.4912L76.003 61.2623L76.7655 60.4253Z" fill="#022B54"/>
<path d="M71.7904 65.8861L11.7775 11.1145L11.015 11.9515L71.0278 66.7231L71.7904 65.8861Z" fill="#022B54"/>
<path d="M66.8155 71.3463L6.80259 16.5753L6.04003 17.4123L66.053 72.1833L66.8155 71.3463Z" fill="#022B54"/>
<path d="M76.3161 50.78L75.4788 50.0166L55.5917 71.8699L56.429 72.6332L76.3161 50.78Z" fill="#022B54"/>
<path d="M70.86 45.8011L70.0227 45.0378L50.1356 66.891L50.973 67.6544L70.86 45.8011Z" fill="#022B54"/>
<path d="M65.4042 40.8217L64.5669 40.0583L44.6798 61.9116L45.5171 62.675L65.4042 40.8217Z" fill="#022B54"/>
<path d="M59.9482 35.8428L59.1109 35.0794L39.2241 56.9323L40.0614 57.6957L59.9482 35.8428Z" fill="#022B54"/>
<path d="M54.4931 30.8633L53.6558 30.1L33.7683 51.9536L34.6056 52.717L54.4931 30.8633Z" fill="#022B54"/>
<path d="M49.0361 25.8828L48.1987 25.1196L28.3135 46.9753L29.1509 47.7386L49.0361 25.8828Z" fill="#022B54"/>
<path d="M43.5815 20.9052L42.7441 20.1418L22.8573 41.9948L23.6947 42.7582L43.5815 20.9052Z" fill="#022B54"/>
<path d="M38.1257 15.9259L37.2883 15.1626L17.4012 37.0159L18.2386 37.7792L38.1257 15.9259Z" fill="#022B54"/>
<path d="M32.6696 10.9465L31.8323 10.1832L11.9452 32.0364L12.7825 32.7998L32.6696 10.9465Z" fill="#022B54"/>
<path d="M27.2138 5.96757L26.3764 5.20419L6.48962 27.0572L7.32697 27.8205L27.2138 5.96757Z" fill="#022B54"/>
<path d="M166.219 173.865L106.205 119.094L106.156 118.017L126.104 97.2512L186.068 150.946L186.118 152.022L166.219 173.865Z" fill="#022B54"/>
<path d="M103.05 100.431L113.493 109.963L118.717 104.229L108.273 94.6975L103.05 100.431Z" fill="#022B54"/>
<path d="M119.517 104.192L108.235 93.8965L102.25 100.468L113.531 110.763L119.517 104.192ZM108.31 95.498L117.917 104.265L113.456 109.162L103.85 100.394L108.31 95.498Z" fill="#FFFEEF"/>
<path d="M186.068 150.946L126.055 96.1744L106.156 118.017L166.169 172.788L186.068 150.946Z" fill="white"/>
<path d="M181.475 155.987L121.461 101.216L120.698 102.053L180.712 156.824L181.475 155.987Z" fill="#022B54"/>
<path d="M176.5 161.448L116.486 106.677L115.723 107.514L175.737 162.285L176.5 161.448Z" fill="#022B54"/>
<path d="M171.525 166.909L111.511 112.138L110.748 112.975L170.762 167.746L171.525 166.909Z" fill="#022B54"/>
<path d="M131.923 101.529L131.085 100.766L111.198 122.62L112.036 123.383L131.923 101.529Z" fill="#022B54"/>
<path d="M137.379 106.509L136.541 105.746L116.654 127.6L117.492 128.363L137.379 106.509Z" fill="#022B54"/>
<path d="M142.834 111.488L141.997 110.725L122.11 132.578L122.947 133.341L142.834 111.488Z" fill="#022B54"/>
<path d="M148.288 116.466L147.451 115.703L127.567 137.559L128.405 138.322L148.288 116.466Z" fill="#022B54"/>
<path d="M153.745 121.446L152.907 120.683L133.023 142.538L133.86 143.301L153.745 121.446Z" fill="#022B54"/>
<path d="M159.202 126.426L158.364 125.662L138.477 147.516L139.315 148.279L159.202 126.426Z" fill="#022B54"/>
<path d="M164.658 131.405L163.821 130.642L143.933 152.495L144.771 153.258L164.658 131.405Z" fill="#022B54"/>
<path d="M170.113 136.384L169.276 135.621L149.388 157.475L150.226 158.238L170.113 136.384Z" fill="#022B54"/>
<path d="M175.569 141.363L174.732 140.6L154.844 162.453L155.682 163.217L175.569 141.363Z" fill="#022B54"/>
<path d="M181.024 146.342L180.186 145.579L160.3 167.433L161.138 168.196L181.024 146.342Z" fill="#022B54"/>
<path d="M141.592 34.1923C133.231 26.5613 125.339 21.5975 123.965 23.1055L105.03 43.8901L135.309 71.5246L154.245 50.74C155.618 49.2321 149.954 41.8234 141.592 34.1923Z" fill="#53C3D0"/>
<path d="M135.31 71.5246C133.936 73.0326 126.044 68.0687 117.683 60.4377C109.321 52.8067 103.656 45.398 105.03 43.8901C106.404 42.3822 114.296 47.3459 122.657 54.977C131.019 62.6082 136.683 70.0167 135.31 71.5246Z" fill="#022B54"/>
<path d="M129.287 61.5778C131.27 63.6662 133.04 65.9477 134.571 68.3882L153.506 47.6036C151.975 45.163 150.205 42.8816 148.222 40.7931L129.287 61.5778Z" fill="#022B54"/>
<path d="M125.852 58.0093C126.598 58.7465 127.311 59.4721 127.99 60.1863L146.925 39.4015C146.247 38.689 145.534 37.9634 144.787 37.2246L125.852 58.0093Z" fill="#022B54"/>
<path d="M139.018 67.4535C139.518 65.0416 133.142 57.5309 126.147 51.1466C119.151 44.7626 111.093 39.0997 108.739 39.8189L108.426 40.1621L108.529 40.2554C109.685 38.9864 116.965 43.1421 125.96 51.3515C134.955 59.5607 139.76 66.4341 138.603 67.7032L138.706 67.7967L139.018 67.4535Z" fill="#022B54"/>
<path d="M151.225 54.0542C151.725 51.6422 145.349 44.1316 138.354 37.7474C131.358 31.3633 123.3 25.7002 120.946 26.4195L120.633 26.7628L120.736 26.8562C121.892 25.5871 129.172 29.7429 138.167 37.9521C147.162 46.1614 151.967 53.0349 150.81 54.3039L150.913 54.3973L151.225 54.0542Z" fill="#022B54"/>
<path d="M120.791 57.0254C115.669 52.3506 110.834 49.3097 109.992 50.2335L89.5354 72.6886L108.085 89.6179L128.542 67.1628C129.384 66.2389 125.913 61.7004 120.791 57.0254Z" fill="#000116"/>
<path d="M120.791 57.0254C115.669 52.3506 110.834 49.3097 109.992 50.2335L89.5354 72.6886L108.085 89.6179L128.542 67.1628C129.384 66.2389 125.913 61.7004 120.791 57.0254Z" fill="#022B54"/>
<path d="M128.96 67.5453C129.368 67.0971 129.645 66.1554 127.352 63.1563C125.481 60.8023 123.413 58.6113 121.172 56.6067V56.6073C120.776 56.2462 111.459 47.7882 109.573 49.8516L88.735 72.7252L108.123 90.419L128.96 67.5453ZM110.372 50.6449C111.034 50.3931 114.938 52.4509 120.409 57.4443C125.881 62.4381 128.288 66.1482 128.123 66.7814L108.048 88.8175L90.335 72.6516L110.372 50.6449Z" fill="#FFFEEF"/>
<path d="M111.697 67.0074C103.336 59.3764 95.4439 54.4127 94.0701 55.9205L60.6772 92.5752L90.9567 120.21L124.35 83.555C125.723 82.0472 120.059 74.6384 111.697 67.0074Z" fill="#53C3D0"/>
<path d="M90.9568 120.21C89.583 121.718 81.6911 116.754 73.3296 109.123C64.9682 101.492 59.3036 94.0832 60.6773 92.5753C62.051 91.0674 69.9429 96.0311 78.3044 103.662C86.6658 111.293 92.3306 118.702 90.9568 120.21Z" fill="#022B54"/>
<path d="M95.8226 114.869C96.3218 112.457 89.9462 104.946 82.951 98.5615C75.9558 92.1774 67.8969 86.5147 65.5431 87.2339L65.2304 87.5772L65.3327 87.6706C66.489 86.4013 73.7693 90.557 82.7643 98.7664C91.7594 106.976 96.5639 113.849 95.4076 115.118L95.5099 115.212L95.8226 114.869Z" fill="#022B54"/>
<path d="M119.44 88.9444C119.939 86.5325 113.563 79.0218 106.568 72.6377C99.5728 66.2535 91.5142 60.5906 89.1603 61.3098L88.8477 61.653L88.9499 61.7464C90.1061 60.4774 97.3864 64.6332 106.381 72.8424C115.376 81.0516 120.181 87.9252 119.025 89.1942L119.127 89.2876L119.44 88.9444Z" fill="#022B54"/>
<path d="M84.9336 110.263C86.9171 112.351 88.6872 114.633 90.2176 117.073L123.611 80.4188C122.08 77.9782 120.31 75.6967 118.327 73.6082L84.9336 110.263Z" fill="#022B54"/>
<path d="M81.4986 106.694C82.245 107.432 82.9579 108.157 83.6372 108.871L117.03 72.2166C116.352 71.5041 115.639 70.7785 114.892 70.0398L81.4986 106.694Z" fill="#022B54"/>
<path d="M89.5486 67.5597C89.9951 67.0697 90.7539 67.0348 91.2435 67.4817C91.733 67.9285 91.768 68.688 91.3215 69.178C90.8751 69.668 90.1163 69.703 89.6267 69.2563C89.3916 69.0416 89.2513 68.7423 89.2366 68.4242C89.222 68.106 89.3342 67.795 89.5486 67.5597Z" fill="#022B54"/>
<path d="M85.5378 71.9624C85.9843 71.4724 86.7431 71.4374 87.2327 71.8842C87.7223 72.3311 87.7572 73.0906 87.3108 73.5806C86.8643 74.0707 86.1055 74.1057 85.6159 73.6588C85.3808 73.4442 85.2405 73.1449 85.2258 72.8268C85.2112 72.5086 85.3234 72.1977 85.5378 71.9624Z" fill="#022B54"/>
<path d="M81.5269 76.365C81.8538 76.006 82.3646 75.8796 82.8211 76.0446C83.2775 76.2096 83.5896 76.6336 83.612 77.1188C83.6344 77.604 83.3625 78.0549 82.9232 78.2612C82.4838 78.4676 81.9636 78.3887 81.605 78.0614C81.3699 77.8469 81.2295 77.5476 81.2149 77.2294C81.2002 76.9112 81.3124 76.6003 81.5269 76.365Z" fill="#022B54"/>
<path d="M85.1763 117.936C86.1374 116.881 81.983 111.523 75.8971 105.968C69.8111 100.414 64.0984 96.7667 63.1372 97.8218L44.4553 99.8714L84.8568 136.744L85.1763 117.936Z" fill="#022B54"/>
<path d="M85.0807 137.264C85.285 137.176 85.4187 136.976 85.4222 136.754L85.739 118.121C86.0674 117.549 86.0116 116.367 83.6263 113.292C79.0982 107.778 73.8019 102.944 67.8996 98.9386C64.6232 96.8477 63.4419 96.8979 62.9016 97.2776L44.3938 99.3079C44.1727 99.3322 43.9862 99.4838 43.9173 99.6955C43.8483 99.9072 43.9097 100.14 44.074 100.29L84.475 137.162C84.6393 137.313 84.8763 137.352 85.0807 137.264ZM63.1991 98.3849C63.3274 98.3767 63.4472 98.3182 63.5326 98.2221C64.2519 97.8819 68.8655 100.318 75.516 106.387C82.1333 112.427 84.9888 116.794 84.7453 117.568C84.6601 117.668 84.6124 117.795 84.6103 117.926L84.312 135.48L45.7633 100.298L63.1991 98.3849Z" fill="#FFFEEF"/>
<path d="M84.6079 137.385C82.8299 139.336 72.2625 132.59 61.0048 122.315C49.7472 112.041 42.0625 102.13 43.8403 100.178C45.6182 98.2266 56.1857 104.974 67.4434 115.248C78.701 125.522 86.3857 135.433 84.6079 137.385Z" fill="#022B54"/>
<path d="M43.8402 100.178C43.8735 99.7737 44.2896 99.5278 44.6236 99.4559C44.9561 99.405 45.2955 99.4243 45.6201 99.5126C46.2337 99.6414 46.8328 99.8315 47.4084 100.08C48.5288 100.554 49.6154 101.104 50.6606 101.726C52.7339 102.951 54.7429 104.282 56.6797 105.713C64.4265 111.402 71.5455 117.901 77.9162 125.1C79.5184 126.899 81.0266 128.779 82.4347 130.733C83.1486 131.718 83.7956 132.75 84.3713 133.822C84.6678 134.374 84.9122 134.952 85.1013 135.549C85.207 135.868 85.2598 136.202 85.2578 136.538C85.251 136.932 84.9872 137.276 84.6078 137.385C84.4712 135.232 83.0475 133.158 81.7036 131.256C80.2961 129.342 78.7907 127.502 77.1936 125.742C70.7428 118.719 63.6849 112.28 56.1022 106.5C54.2045 105.071 52.2348 103.741 50.2009 102.514C48.1849 101.339 45.9918 100.146 43.8402 100.178Z" fill="#FFFEEF"/>
<path d="M61.9014 121.331C57.352 117.242 53.1116 112.821 49.215 108.105C45.6767 103.69 45.0632 101.81 44.9635 101.203C45.5767 101.247 47.5032 101.685 52.221 104.806C62.278 111.787 71.3618 120.077 79.2331 129.458C82.7713 133.873 83.3849 135.752 83.4846 136.36C82.8715 136.316 80.945 135.878 76.2271 132.758C71.1764 129.308 66.388 125.489 61.9014 121.331Z" fill="#53C3D0"/>
<path d="M63.6051 119.461C59.0502 115.367 54.8047 110.941 50.9036 106.219C49.9429 105.036 49.0423 103.807 48.2053 102.534L48.4327 102.393C49.2643 103.658 50.1589 104.88 51.1132 106.055C55.0052 110.765 59.2406 115.18 63.7845 119.264C68.2657 123.417 73.0481 127.232 78.0925 130.677C79.3488 131.52 80.6469 132.299 81.9817 133.012L81.863 133.251C80.5195 132.534 79.213 131.75 77.9484 130.901C72.8914 127.448 68.0972 123.624 63.6051 119.461Z" fill="#022B54"/>
<path d="M65.4978 117.383C61.8015 114.038 58.3053 110.478 55.0276 106.721C63.087 112.6 70.4783 119.346 77.0691 126.837C73.0298 123.916 69.166 120.759 65.4978 117.383Z" fill="#022B54"/>
<path d="M61.4231 118.969L63.5201 120.883L67.3549 116.674L65.2579 114.76L61.4231 118.969Z" fill="#022B54"/>
<path d="M61.741 117.897C62.4355 117.135 63.6159 117.08 64.3775 117.775C65.1391 118.47 65.1936 119.652 64.4991 120.414C63.8046 121.176 62.6242 121.231 61.8626 120.536C61.4968 120.202 61.2785 119.736 61.2557 119.241C61.2329 118.747 61.4075 118.263 61.741 117.897Z" fill="#022B54"/>
</svg>
